<?xml version="1.0" standalone="no"?>
<!DOCTYPE svg PUBLIC "-//W3C//DTD SVG 20010904//EN"
 "http://www.w3.org/TR/2001/REC-SVG-20010904/DTD/svg10.dtd">
<svg version="1.0" xmlns="http://www.w3.org/2000/svg"
 width="192.000000pt" height="192.000000pt" viewBox="0 0 192.000000 192.000000"
 preserveAspectRatio="xMidYMid meet">
<metadata>
Created by potrace 1.14, written by Peter Selinger 2001-2017
</metadata>
<g transform="translate(0.000000,192.000000) scale(0.100000,-0.100000)"
fill="#000000" stroke="none">
<path d="M830 1913 c-14 -2 -45 -8 -70 -14 -25 -6 -52 -12 -60 -14 -64 -13
-187 -72 -275 -130 -60 -40 -195 -168 -228 -215 -9 -14 -30 -44 -47 -67 -16
-24 -30 -49 -30 -57 0 -8 -4 -16 -8 -18 -15 -5 -69 -152 -88 -234 -29 -131
-24 -331 13 -454 9 -30 15 -61 14 -67 -1 -7 3 -13 9 -13 5 0 10 -7 10 -15 0
-57 156 -293 238 -358 12 -10 29 -25 36 -33 8 -8 19 -14 25 -14 6 0 11 -4 11
-9 0 -12 197 -132 213 -130 1 0 16 -5 32 -11 26 -10 87 -27 167 -47 55 -13
265 -12 333 2 102 22 112 24 142 37 16 6 33 12 39 13 10 3 97 46 155 77 44 23
219 168 204 168 -3 0 7 13 22 28 52 52 177 262 156 262 -4 0 -3 4 3 8 10 6 39
91 50 147 19 93 24 234 12 330 -27 213 -120 399 -277 555 -73 73 -212 173
-238 173 -7 0 -13 4 -13 8 0 3 -10 10 -22 14 -13 4 -25 8 -28 9 -110 48 -203
67 -345 70 -71 2 -141 2 -155 -1z m235 -107 c46 -5 82 -12 95 -16 3 -1 10 -3
15 -4 31 -6 77 -23 134 -48 250 -112 437 -348 486 -613 2 -11 6 -31 10 -45 6
-27 7 -173 1 -230 -5 -49 -35 -159 -52 -192 -8 -15 -14 -30 -13 -33 1 -8 -43
-99 -51 -105 -4 -3 -13 -16 -20 -29 -19 -37 -28 -47 -117 -135 -95 -95 -99
-98 -144 -121 -19 -10 -36 -21 -39 -25 -7 -9 -123 -55 -132 -52 -5 1 -8 -2 -8
-8 0 -18 -40 -11 -41 8 0 9 0 109 0 222 l-1 205 112 77 c61 43 115 78 120 78
4 0 10 3 12 8 5 11 126 92 138 92 6 0 8 5 5 10 -3 6 -1 10 5 10 6 0 24 10 40
22 29 21 29 22 28 120 0 54 -3 98 -6 98 -7 0 -102 -61 -125 -80 -10 -8 -33
-24 -51 -35 -19 -11 -78 -51 -132 -90 -55 -38 -109 -75 -121 -82 -12 -6 -28
-16 -35 -22 -7 -6 -47 -35 -88 -64 l-74 -53 0 -281 c0 -191 -3 -283 -10 -286
-10 -3 -47 -2 -90 2 -11 1 -13 51 -13 282 l0 282 -24 18 c-13 11 -78 56 -144
101 -267 181 -340 232 -347 242 -5 7 -8 7 -8 1 0 -6 -3 -6 -8 0 -10 16 -74 59
-90 61 -10 2 -12 -21 -11 -102 1 -57 5 -102 9 -99 5 3 10 1 12 -3 5 -12 254
-182 268 -182 6 0 8 -5 5 -10 -3 -5 0 -10 8 -10 7 0 23 -9 35 -20 12 -11 23
-20 26 -20 3 0 25 -14 50 -31 43 -29 46 -33 46 -77 2 -221 0 -395 -4 -399 -3
-3 -26 2 -51 11 -24 10 -46 17 -47 16 -2 -2 -27 12 -56 29 -29 17 -55 31 -58
31 -3 0 -31 20 -63 44 -71 55 -161 151 -204 219 -29 44 -92 162 -87 162 1 0
-1 7 -4 15 -50 155 -61 315 -31 465 8 43 45 153 61 184 8 14 14 31 14 37 0 7
7 14 15 18 8 3 14 9 13 13 -2 7 48 86 77 121 18 21 93 96 115 115 52 44 218
137 255 143 6 1 35 9 65 18 30 9 84 19 120 22 36 3 66 7 67 8 4 3 73 -1 138
-8z"/>
<path d="M867 1700 c-48 -33 -92 -60 -97 -60 -4 0 -10 -4 -12 -8 -4 -11 -166
-122 -178 -122 -6 0 -10 -4 -10 -8 0 -4 -22 -21 -50 -37 -27 -17 -50 -33 -50
-37 0 -5 -6 -8 -14 -8 -8 0 -16 -3 -18 -7 -4 -10 -65 -53 -73 -53 -4 0 -13 -6
-20 -12 -35 -31 -45 -38 -45 -31 0 4 -5 0 -11 -10 -6 -10 -9 -20 -7 -21 22
-19 135 -91 144 -92 7 -1 23 9 35 22 12 13 26 24 31 24 4 0 26 12 47 28 21 15
47 33 57 40 11 6 95 64 187 127 159 108 197 129 197 105 0 -5 4 -10 10 -10 11
0 113 -71 118 -82 2 -5 8 -8 14 -8 6 0 26 -11 45 -26 18 -14 33 -22 33 -18 0
4 6 1 13 -8 6 -9 62 -48 122 -88 61 -40 112 -76 115 -80 8 -11 44 -23 59 -21
8 2 20 8 27 16 7 7 33 25 58 41 25 16 45 33 43 39 -2 5 -75 58 -162 117 -88
60 -162 113 -166 119 -3 6 -10 10 -15 10 -5 -1 -17 6 -27 14 -9 8 -21 15 -25
15 -4 0 -19 11 -34 24 -14 14 -29 22 -32 19 -3 -4 -6 -1 -6 5 0 7 -6 12 -14
12 -8 0 -16 3 -18 8 -4 8 -150 110 -170 117 -7 3 -53 -22 -101 -55z"/>
<path d="M845 1315 c-60 -42 -152 -103 -202 -137 -51 -34 -93 -65 -93 -70 0
-4 9 -12 19 -18 11 -5 26 -16 33 -22 16 -15 44 -34 74 -49 18 -9 36 -1 125 58
57 37 106 71 109 74 3 3 16 12 29 18 21 12 34 6 151 -73 130 -87 156 -98 166
-71 4 8 10 15 15 15 13 0 99 63 99 72 0 5 -8 12 -17 15 -10 4 -20 10 -23 13
-4 6 -252 176 -299 205 -9 6 -27 18 -40 28 -13 9 -26 17 -30 17 -3 0 -55 -34
-116 -75z"/>
<path d="M927 1050 c-14 -11 -30 -20 -36 -20 -6 0 -11 -3 -11 -7 0 -5 -20 -21
-45 -36 -25 -16 -45 -34 -45 -40 0 -7 39 -37 87 -69 98 -64 75 -66 202 21 l64
44 -31 26 c-51 43 -116 88 -138 95 -14 4 -30 -1 -47 -14z"/>
</g>
</svg>
